<svg width="272" height="250" viewBox="0 0 272 250" fill="none" xmlns="http://www.w3.org/2000/svg">
<g opacity="0.04" clip-path="url(#clip0_12_2538)">
<path fill-rule="evenodd" clip-rule="evenodd" d="M53.9343 113.824C52.1912 109.07 51.921 103.893 53.1596 98.9799C54.3982 94.0668 57.0871 89.6491 60.8702 86.3119C64.6533 82.9746 69.3522 80.8752 74.3445 80.2917C79.3369 79.7082 84.3872 80.668 88.8266 83.0442C89.5014 83.3297 90.1403 83.6949 90.7299 84.1321C94.1475 86.4376 98.1999 87.5949 102.309 87.4389C106.417 87.2829 110.372 85.8215 113.608 83.2633C116.844 80.7051 119.196 77.181 120.328 73.1941C121.461 69.2072 121.315 64.9614 119.913 61.0629C119.666 60.3646 119.38 59.6809 119.056 59.0152C118.159 57.6086 117.353 56.1443 116.645 54.6317C115.198 50.6179 115.391 46.1887 117.182 42.3184C118.973 38.4482 122.214 35.4539 126.193 33.9943C130.172 32.5347 134.563 32.7294 138.4 34.5356C142.237 36.3417 145.206 39.6113 146.653 43.6251C146.963 44.4877 147.197 45.3764 147.351 46.2808C196.39 35.5941 247.968 61.5109 265.604 110.465C284.89 163.898 259.26 224.371 206.224 243.792C158.04 261.486 102.72 240.081 79.1202 195.798C78.2938 196.287 77.4228 196.694 76.5191 197.014C72.5399 198.474 68.1488 198.279 64.3119 196.473C60.475 194.667 57.5065 191.397 56.0595 187.383C54.6125 183.369 54.8055 178.94 56.5961 175.07C58.3867 171.2 61.6281 168.205 65.6073 166.746C66.5909 166.405 67.5981 166.137 68.6208 165.946C73.1174 163.59 76.6108 159.664 78.4494 154.901C80.2879 150.139 80.3459 144.864 78.6127 140.061C76.8379 135.119 73.2498 131.053 68.5891 128.703C65.2298 127.431 62.1819 125.443 59.6529 122.876C57.124 120.308 55.1735 117.221 53.9343 113.824ZM18.1537 147.932C16.3439 148.591 14.3816 148.696 12.5128 148.235C10.6439 147.773 8.95183 146.765 7.6487 145.337C6.34557 143.909 5.48942 142.125 5.18764 140.208C4.88586 138.292 5.15188 136.328 5.95234 134.563C6.7528 132.798 8.05206 131.311 9.68715 130.288C11.3222 129.265 13.2204 128.752 15.1435 128.813C17.0666 128.874 18.929 129.506 20.4972 130.631C22.0654 131.755 23.2695 133.322 23.9585 135.134C24.4194 136.358 24.6346 137.662 24.5917 138.971C24.5488 140.279 24.2486 141.566 23.7085 142.757C23.1685 143.948 22.3994 145.018 21.4458 145.907C20.4922 146.795 19.3732 147.483 18.1537 147.932ZM8.6376 105.697C7.4573 106.159 6.16707 106.254 4.93287 105.97C3.69866 105.686 2.57693 105.036 1.71194 104.103C0.846958 103.171 0.278281 101.999 0.0790577 100.738C-0.120166 99.477 0.0591761 98.1847 0.594015 97.0274C1.12885 95.87 1.99473 94.9005 3.08027 94.2436C4.16581 93.5867 5.42138 93.2723 6.68546 93.3411C7.94955 93.4098 9.16435 93.8584 10.1736 94.6292C11.1829 95.4 11.9404 96.4577 12.3489 97.6664C12.8736 99.2375 12.7733 100.953 12.0692 102.451C11.3651 103.949 10.1121 105.113 8.57416 105.697H8.6376ZM14.1569 63.6546C12.9766 64.1162 11.6864 64.2112 10.4522 63.9271C9.218 63.6431 8.09627 62.9931 7.23128 62.0607C6.3663 61.1284 5.79762 59.9563 5.5984 58.6953C5.39917 57.4343 5.57852 56.142 6.11336 54.9846C6.64819 53.8273 7.51407 52.8578 8.59961 52.2008C9.68515 51.5439 10.9407 51.2296 12.2048 51.2983C13.4689 51.367 14.6837 51.8156 15.693 52.5864C16.7022 53.3572 17.4598 54.415 17.8682 55.6236C18.3964 57.1866 18.3051 58.8951 17.6135 60.3918C16.9218 61.8885 15.6833 63.0576 14.1569 63.6546ZM70.3337 46.8247C69.1534 47.2863 67.8631 47.3812 66.6289 47.0972C65.3947 46.8132 64.273 46.1632 63.408 45.2308C62.543 44.2985 61.9744 43.1264 61.7751 41.8654C61.5759 40.6044 61.7552 39.3121 62.2901 38.1547C62.8249 36.9974 63.6908 36.0279 64.7763 35.3709C65.8619 34.714 67.1174 34.3997 68.3815 34.4684C69.6456 34.5371 70.8604 34.9857 71.8697 35.7565C72.879 36.5273 73.6365 37.5851 74.045 38.7937C74.3276 39.5666 74.4557 40.3882 74.4219 41.2113C74.3882 42.0343 74.1931 42.8425 73.8481 43.5891C73.503 44.3358 73.0148 45.0061 72.4117 45.5614C71.8085 46.1168 71.1022 46.5461 70.3337 46.8247ZM86.1938 12.429C85.0056 12.8549 83.7184 12.914 82.4968 12.5986C81.2751 12.2833 80.1743 11.6078 79.3349 10.6585C78.4956 9.70918 77.9557 8.52907 77.7844 7.26886C77.613 6.00865 77.8178 4.72551 78.3728 3.58327C78.9277 2.44104 79.8075 1.49153 80.8999 0.855987C81.9922 0.220444 83.2476 -0.0722972 84.5057 0.0151394C85.7637 0.102576 86.9674 0.566223 87.9631 1.34688C88.9587 2.12754 89.7011 3.18979 90.0954 4.39801C90.6152 5.98135 90.5015 7.70681 89.7787 9.20688C89.0559 10.7069 87.781 11.8631 86.2256 12.429H86.1938ZM45.687 31.0827C44.5025 31.5265 43.2137 31.6034 41.9856 31.3037C40.7575 31.0039 39.6462 30.3411 38.794 29.4001C37.9418 28.4592 37.3875 27.2829 37.2023 26.0222C37.017 24.7615 37.2092 23.4737 37.7542 22.3238C38.2992 21.174 39.1722 20.2145 40.2612 19.5683C41.3503 18.9221 42.6059 18.6187 43.867 18.6969C45.1281 18.775 46.3374 19.2313 47.3398 20.0072C48.3422 20.783 49.0921 21.8432 49.4934 23.0517C50.0164 24.6269 49.9117 26.3455 49.2014 27.8442C48.491 29.3429 47.2308 30.5042 45.687 31.0827ZM100.278 75.8771C97.472 76.9105 94.4256 77.0813 91.5237 76.3679C88.6218 75.6545 85.9948 74.089 83.9751 71.8694C81.9554 69.6498 80.6338 66.8759 80.1773 63.8985C79.7208 60.9211 80.1501 57.874 81.4107 55.1427C82.6714 52.4114 84.7068 50.1186 87.2595 48.5544C89.8123 46.9902 92.7676 46.2248 95.7516 46.355C98.7356 46.4853 101.614 47.5054 104.024 49.2862C106.433 51.067 108.264 53.5286 109.286 56.3595C109.981 58.2352 110.301 60.2308 110.229 62.2317C110.156 64.2326 109.693 66.1994 108.864 68.019C108.036 69.8385 106.859 71.4751 105.402 72.8347C103.945 74.1942 102.236 75.2499 100.373 75.9411L100.278 75.8771ZM38.8671 93.8908C45.2264 93.8908 50.3816 88.6908 50.3816 82.2763C50.3816 75.8617 45.2264 70.6617 38.8671 70.6617C32.5078 70.6617 27.3526 75.8617 27.3526 82.2763C27.3526 88.6908 32.5078 93.8908 38.8671 93.8908ZM66.3686 146.428C66.3686 154.84 59.6228 161.658 51.3015 161.658C42.9801 161.658 36.2343 154.84 36.2343 146.428C36.2343 138.017 42.9801 131.198 51.3015 131.198C59.6228 131.198 66.3686 138.017 66.3686 146.428ZM116.201 27.9151C121.089 27.9151 125.051 23.9184 125.051 18.9882C125.051 14.058 121.089 10.0613 116.201 10.0613C111.314 10.0613 107.351 14.058 107.351 18.9882C107.351 23.9184 111.314 27.9151 116.201 27.9151ZM170.158 112.256C181.355 112.256 191.759 114.432 209.047 121.183L216.977 100.578C201.622 93.4185 184.916 89.686 168.001 89.6353C141.863 89.6353 127.145 104.449 127.145 124.831C127.145 145.212 139.896 155.867 161.72 162.266C185.479 169.401 189.793 172.185 189.793 179.896C189.793 186.647 184.495 190.423 175.645 190.423C163.782 190.423 149.539 186.263 132.062 176.92L121.816 198.326C138.677 208.071 157.623 213.559 177.041 214.324C202.766 214.324 219.261 200.853 219.261 178.264C219.261 157.659 209.269 149.116 186.081 141.213C161.561 133.086 155.217 130.91 155.217 122.559C155.217 116.64 161.53 112.256 170.158 112.256Z" fill="black"/>
</g>
<defs>
<clipPath id="clip0_12_2538">
<rect width="272" height="250" fill="white"/>
</clipPath>
</defs>
</svg>
