<svg width="1175" height="960" viewBox="0 0 1175 960" fill="none" xmlns="http://www.w3.org/2000/svg">
<g opacity="0.1" clip-path="url(#clip0_12_2033)">
<path fill-rule="evenodd" clip-rule="evenodd" d="M240.126 442.201C232.366 421.014 231.163 397.947 236.678 376.054C242.192 354.162 254.164 334.477 271.007 319.606C287.85 304.735 308.77 295.38 330.997 292.78C353.224 290.18 375.709 294.457 395.474 305.045C398.479 306.317 401.323 307.944 403.948 309.892C419.164 320.166 437.206 325.323 455.499 324.628C473.791 323.933 491.398 317.42 505.806 306.021C520.214 294.622 530.686 278.919 535.727 261.153C540.768 243.387 540.12 224.468 533.875 207.096C532.776 203.985 531.503 200.938 530.062 197.972C526.067 191.704 522.482 185.179 519.329 178.439C512.887 160.553 513.746 140.817 521.718 123.571C529.69 106.325 544.122 92.9825 561.838 86.4787C579.554 79.9748 599.104 80.8424 616.187 88.8905C633.27 96.9386 646.486 111.508 652.929 129.393C654.309 133.237 655.349 137.197 656.035 141.227C874.37 93.6074 1104 209.093 1182.52 427.231C1268.39 665.33 1154.28 934.795 918.15 1021.34C703.629 1100.18 457.331 1004.8 352.259 807.476C348.58 809.653 344.702 811.467 340.679 812.894C322.963 819.398 303.413 818.531 286.33 810.482C269.247 802.434 256.031 787.865 249.589 769.979C243.146 752.094 244.006 732.357 251.978 715.111C259.949 697.865 274.381 684.523 292.097 678.019C296.477 676.499 300.961 675.308 305.514 674.455C325.534 663.956 341.087 646.464 349.273 625.241C357.458 604.018 357.717 580.513 350 559.112C342.098 537.091 326.123 518.973 305.373 508.498C290.417 502.831 276.847 493.975 265.587 482.534C254.328 471.093 245.644 457.337 240.126 442.201ZM80.824 594.185C72.7666 597.122 64.0298 597.591 55.7094 595.534C47.389 593.477 39.8554 588.985 34.0536 582.623C28.2518 576.26 24.44 568.31 23.0964 559.769C21.7528 551.228 22.9372 542.476 26.501 534.612C30.0648 526.748 35.8494 520.121 43.1292 515.563C50.409 511.005 58.8599 508.718 67.4219 508.99C75.9839 509.262 84.2759 512.079 91.2578 517.09C98.2397 522.101 103.601 529.081 106.668 537.156C108.72 542.61 109.678 548.422 109.487 554.253C109.296 560.084 107.96 565.819 105.555 571.125C103.151 576.43 99.7266 581.201 95.4811 585.16C91.2356 589.119 86.2535 592.186 80.824 594.185ZM38.4564 405.987C33.2014 408.045 27.4571 408.467 21.9621 407.202C16.4672 405.936 11.473 403.04 7.62193 398.885C3.77083 394.731 1.23896 389.508 0.351981 383.889C-0.535002 378.27 0.263464 372.511 2.64468 367.354C5.02589 362.197 8.88095 357.877 13.714 354.949C18.5471 352.022 24.1371 350.622 29.7651 350.928C35.393 351.234 40.8016 353.233 45.295 356.668C49.7885 360.102 53.1613 364.816 54.9798 370.201C57.3159 377.202 56.8696 384.845 53.7347 391.52C50.5999 398.196 45.0213 403.382 38.1739 405.987H38.4564ZM63.0296 218.645C57.7747 220.702 52.0303 221.125 46.5354 219.859C41.0405 218.593 36.0463 215.697 32.1952 211.543C28.3441 207.388 25.8122 202.165 24.9252 196.546C24.0382 190.927 24.8367 185.169 27.2179 180.012C29.5991 174.854 33.4542 170.534 38.2872 167.607C43.1203 164.68 48.7103 163.279 54.3383 163.585C59.9663 163.891 65.3748 165.89 69.8683 169.325C74.3617 172.76 77.7346 177.473 79.553 182.859C81.9046 189.824 81.4982 197.437 78.4188 204.106C75.3394 210.775 69.8254 215.985 63.0296 218.645ZM313.14 143.651C307.885 145.708 302.141 146.131 296.646 144.865C291.151 143.599 286.157 140.703 282.306 136.549C278.454 132.394 275.923 127.171 275.036 121.552C274.149 115.933 274.947 110.175 277.328 105.017C279.71 99.8603 283.565 95.5402 288.398 92.6129C293.231 89.6856 298.821 88.285 304.449 88.5912C310.077 88.8974 315.485 90.8964 319.979 94.3311C324.472 97.7658 327.845 102.479 329.663 107.865C330.922 111.309 331.492 114.97 331.342 118.637C331.191 122.305 330.323 125.906 328.787 129.233C327.251 132.56 325.077 135.547 322.392 138.022C319.706 140.496 316.562 142.409 313.14 143.651ZM383.753 -9.61636C378.462 -7.71843 372.732 -7.45529 367.293 -8.86052C361.853 -10.2657 356.952 -13.2756 353.215 -17.5057C349.478 -21.7359 347.075 -26.9944 346.312 -32.6099C345.549 -38.2255 346.461 -43.9431 348.932 -49.0329C351.402 -54.1227 355.319 -58.3537 360.183 -61.1857C365.046 -64.0177 370.635 -65.3222 376.237 -64.9325C381.838 -64.5429 387.197 -62.4769 391.63 -58.9983C396.062 -55.5197 399.368 -50.7863 401.123 -45.4025C403.437 -38.3471 402.931 -30.6585 399.713 -23.9742C396.495 -17.2899 390.819 -12.1382 383.894 -9.61636H383.753ZM203.408 73.5044C198.134 75.482 192.396 75.825 186.929 74.4892C181.461 73.1534 176.513 70.1998 172.719 66.0069C168.925 61.814 166.457 56.5728 165.632 50.955C164.807 45.3372 165.663 39.5988 168.089 34.4751C170.516 29.3513 174.402 25.0758 179.251 22.1964C184.1 19.3169 189.69 17.9648 195.305 18.3132C200.92 18.6616 206.304 20.6947 210.767 24.152C215.23 27.6092 218.568 32.3331 220.355 37.7183C222.683 44.7373 222.217 52.3953 219.055 59.0736C215.892 65.7518 210.281 70.9267 203.408 73.5044ZM446.457 273.108C433.966 277.713 420.402 278.474 407.482 275.295C394.562 272.117 382.867 265.141 373.875 255.25C364.882 245.36 358.998 232.999 356.966 219.732C354.933 206.464 356.845 192.887 362.457 180.716C368.07 168.545 377.132 158.329 388.497 151.358C399.863 144.388 413.02 140.978 426.306 141.558C439.591 142.138 452.408 146.684 463.134 154.619C473.861 162.555 482.015 173.523 486.565 186.138C489.657 194.496 491.083 203.388 490.761 212.304C490.438 221.221 488.374 229.984 484.686 238.092C480.999 246.201 475.76 253.493 469.272 259.551C462.785 265.609 455.175 270.313 446.881 273.393L446.457 273.108ZM173.044 353.378C201.357 353.378 224.309 330.206 224.309 301.623C224.309 273.04 201.357 249.869 173.044 249.869C144.732 249.869 121.779 273.04 121.779 301.623C121.779 330.206 144.732 353.378 173.044 353.378ZM295.487 587.484C295.487 624.965 265.453 655.35 228.405 655.35C191.356 655.35 161.323 624.965 161.323 587.484C161.323 550.003 191.356 519.619 228.405 519.619C265.453 519.619 295.487 550.003 295.487 587.484ZM517.352 59.3896C539.113 59.3896 556.754 41.5802 556.754 19.6114C556.754 -2.35754 539.113 -20.1668 517.352 -20.1668C495.591 -20.1668 477.95 -2.35754 477.95 19.6114C477.95 41.5802 495.591 59.3896 517.352 59.3896ZM757.577 435.215C807.43 435.215 853.752 444.91 930.72 474.993L966.026 383.175C897.663 351.273 823.286 334.641 747.974 334.415C631.604 334.415 566.075 400.427 566.075 491.247C566.075 582.066 622.848 629.543 720.011 658.058C825.789 689.852 844.996 702.256 844.996 736.617C844.996 766.7 821.411 783.524 782.009 783.524C729.191 783.524 665.78 764.989 587.965 723.357L542.349 818.739C617.417 862.163 701.771 886.62 788.223 890.027C902.757 890.027 976.194 830.003 976.194 729.345C976.194 637.528 931.708 599.46 828.472 564.245C719.305 528.031 691.06 518.336 691.06 481.124C691.06 454.747 719.164 435.215 757.577 435.215Z" fill="black"/>
</g>
<defs>
<clipPath id="clip0_12_2033">
<rect width="1211" height="1114" fill="white" transform="translate(0 -65)"/>
</clipPath>
</defs>
</svg>
